<svg xmlns="http://www.w3.org/2000/svg" width="24" height="24" viewBox="0 0 6.35 6.35"><path d="M3.175 0a3.175 3.175 0 0 0-2.052.752l.564.564A2.381 2.381 0 0 1 3.175.794a2.381 2.381 0 0 1 1.484.522l.563-.564A3.175 3.175 0 0 0 3.175 0z" fill="#ff8900"/><path style="line-height:normal;font-variant-ligatures:normal;font-variant-position:normal;font-variant-caps:normal;font-variant-numeric:normal;font-variant-alternates:normal;font-feature-settings:normal;text-indent:0;text-align:start;text-decoration-line:none;text-decoration-style:solid;text-decoration-color:#000;text-transform:none;text-orientation:mixed;shape-padding:0;isolation:auto;mix-blend-mode:normal" d="M4.989 2.088l-.99.496-.946.946-1.024-.256-.84.63a2.117 2.117 0 0 0 .412.683l.602-.452 1.094.274 1.172-1.173.795-.397a2.117 2.117 0 0 0-.275-.75zm.61-.964l-.565.564a2.381 2.381 0 0 1 .522 1.487 2.381 2.381 0 0 1-2.381 2.381A2.381 2.381 0 0 1 .794 3.175a2.381 2.381 0 0 1 .52-1.483l-.563-.563A3.175 3.175 0 0 0 0 3.175 3.175 3.175 0 0 0 3.175 6.35 3.175 3.175 0 0 0 6.35 3.175a3.175 3.175 0 0 0-.752-2.05z" color="#000" font-weight="400" font-family="sans-serif" white-space="normal" overflow="visible" fill="#fff"/></svg>