<svg xmlns="http://www.w3.org/2000/svg" version="1.1" viewBox="0 0 58 54">
 <path d="m10.304 15.659 0.037161-10.178 8.8323-5.0564 8.7951 5.1209-0.037161 10.178-8.8323 5.0564-8.7951-5.1209"/>
 <path d="m30.049 15.724 0.037161-10.178 8.8323-5.0564 8.7951 5.1209-0.037161 10.178-8.8323 5.0564-8.7951-5.1209"/>
 <path d="m39.865 32.08 0.037161-10.178 8.8323-5.0564 8.7951 5.1209-0.037161 10.178-8.8323 5.0564-8.7951-5.1209"/>
 <path d="m29.937 48.373 0.037161-10.178 8.8323-5.0564 8.7951 5.1209-0.037161 10.178-8.8323 5.0564-8.7951-5.1209"/>
 <path d="m10.193 48.308 0.037161-10.178 8.8323-5.0564 8.7951 5.1209-0.037161 10.178-8.8323 5.0564-8.7951-5.1209"/>
 <path d="m0.37606 31.952 0.037161-10.178 8.8323-5.0564 8.7951 5.1209-0.037161 10.178-8.8323 5.0564-8.7951-5.1209"/>
 <path d="m20.121 32.016 0.037161-10.178 8.8323-5.0564 8.7951 5.1209-0.037161 10.178-8.8323 5.0564-8.7951-5.1209"/>
</svg>