<svg viewBox="0 0 123.3 102.3" xmlns="http://www.w3.org/2000/svg">
<rect fill="#fff" x="44" y="39.4" width="40" height="40" rx="5.9" ry="5.9" transform="rotate(-45 47.3 55.8)"/>
<path fill="#fff" d="M22 45.6a39.6 39.6 0 0 0 68.9 27.5l-5.4-4.6a32.4 32.4 0 1 1-25.4-54.4V6.9A39.6 39.6 0 0 0 22 45.6z"/>
<path fill="#fff" d="M94 46.5a32.3 32.3 0 0 1-6.6 19.6l5.4 4.6A39.6 39.6 0 0 0 63.1 6.9v7.2A32.4 32.4 0 0 1 94 46.5z"/>
<path fill="#fff" d="M62.4.3a46.2 46.2 0 0 0-38.5 72.9v-5.7a43.5 43.5 0 0 1-4.2-31.7 42.4 42.4 0 0 1 32-31.4 43.2 43.2 0 0 1 47.6 63.1v5.7A46.2 46.2 0 0 0 62.4.3z"/>
<path fill="#fff" d="M61.6 89.6a43.1 43.1 0 0 1-33.9-16.4.4.4 0 0 0-.8.3v3.4a.4.4 0 0 0 .1.3 46.2 46.2 0 0 0 24.4 14.4l.3.2h.1l8.8 9.7a1.3 1.3 0 0 0 1.9 0l8.8-9.8h.2a46.2 46.2 0 0 0 24.6-14.5.4.4 0 0 0 .1-.3v-3.4a.4.4 0 0 0-.8-.3 43.1 43.1 0 0 1-33.8 16.4z"/>
</svg>