<svg viewBox="0 0 123.3 102.3" xmlns="http://www.w3.org/2000/svg">
  <g>
    <rect x="22.1" y="46.7" width="25.4" height="25.45" rx="3.7" ry="3.7" transform="translate(-34.2 29.2) rotate(-45)"></rect>
    <path d="M57.1,47.7A25.2,25.2,0,0,0,35.8,34.2v4.5A20.6,20.6,0,0,1,55,54.9Z" transform="translate(-2.4 -12.9)"></path>
    <path d="M33.9,38.8h0V34.2h0A25.2,25.2,0,1,0,47.6,81.1l2.2-7.4A20.6,20.6,0,1,1,33.9,38.8Z" transform="translate(-2.4 -12.9)"></path>
    <path d="M46.8,84.1a27.4,27.4,0,0,1-33.5-7.7.3.3,0,0,0-.5.2v2.4a29.4,29.4,0,0,0,15.5,9.2h.2l5.6,6.2a.8.8,0,0,0,1.2,0L41,88.2h.1a29.1,29.1,0,0,0,5-1.6Z" transform="translate(-2.4 -12.9)"></path>
    <path d="M8.2,52.6a26.9,26.9,0,0,1,20.3-20A27.5,27.5,0,0,1,58.2,44.9l.7-2.4a29.4,29.4,0,1,0-48,33.9h0V72.8h0A27.7,27.7,0,0,1,8.2,52.6Z" transform="translate(-2.4 -12.9)"></path>
    <path d="M121.7,68.6h-.1V67.1h.1a.6.6,0,0,0,.6-.5.6.6,0,0,0-.6-.6h-.2c0-.5,0-1,0-1.5h.2a.6.6,0,0,0,.6-.5.6.6,0,0,0-.6-.6h-.2V61.8h.3a.6.6,0,0,0,.6-.6.6.6,0,0,0-.6-.5h-.3V59.2h0a1.2,1.2,0,0,0,1.1-1.3,1.2,1.2,0,0,0-1.2-1.1h-.1c-1.1-5.1-5.6-9-12.6-9H98.1c-2.7-4.5-4-7.6-5.2-8.2s-5.8-1.9-13-1.9H75.2L63.7,77.1h22a3.8,3.8,0,0,0-.6,1.7c0,2.5,1.7,2.8,4.5,2.5h0c.1-.2,4.8-8.3,12.5-8.2s11.5,5.7,12.5,7.7c0,.1,0,.2,0,.3h0c3.2.4,5.2.1,5.2-2.6a5.1,5.1,0,0,0-1.3-2.6h0c2.8-.6,3.2-3,3.1-6.2h0a.6.6,0,0,0,.6-.4A.6.6,0,0,0,121.7,68.6ZM94,47.9l-10.7.5h0c-3.5-.1-4,.4-4-.6s-.2-3.7-.2-4.7.1-1.8,1.2-1.8,7.3-.2,8.6-.1a2.9,2.9,0,0,1,2.8,1.9l2.3,4.7Z" transform="translate(-2.4 -12.9)"></path>
    <path d="M102.2,84.5c-1.8,0-3.2,1.1-3.2,2.5s1.4,2.5,3.2,2.5,3.2-1.1,3.2-2.5S104,84.5,102.2,84.5Zm0,4.2a1.3,1.3,0,1,1,1.7-1.3A1.5,1.5,0,0,1,102.2,88.8Z" transform="translate(-2.4 -12.9)"></path>
    <path d="M105.9,76.6V76a1.1,1.1,0,0,0-1.1-1.1H99.4A1.1,1.1,0,0,0,98.4,76v.6c-5.2,1.2-9.1,5-9.1,9.4a8.3,8.3,0,0,0,2.1,5.4h0a.5.5,0,0,0,0,.8l2,2a.5.5,0,0,0,.8,0l.2-.3a15.8,15.8,0,0,0,15.4,0l.2.3a.5.5,0,0,0,.8,0l2-2a.5.5,0,0,0,0-.8h0a8.2,8.2,0,0,0,2.1-5.4C114.9,81.6,111.1,77.8,105.9,76.6Zm-5.3.2h3.1a.6.6,0,0,1,.6.6l-.5,2.9a.6.6,0,0,1-.6.6h-2a.6.6,0,0,1-.6-.6l-.7-2.9A.6.6,0,0,1,100.6,76.8ZM95,91.8,94.2,93a.3.3,0,0,1-.4,0l-1.1-1.1a.3.3,0,0,1,0-.4l1.3-.8a.3.3,0,0,1,.4,0l.7.7h.1v.4Zm7.2,1c-3.7,0-6.7-2.3-6.7-5.2s3-5.2,6.7-5.2,6.7,2.3,6.7,5.2S105.9,92.9,102.2,92.9Zm9.6-.9L110.6,93a.3.3,0,0,1-.4,0l-.8-1.2h-.1v-.4l.7-.7a.3.3,0,0,1,.4,0l1.3.8A.3.3,0,0,1,111.8,91.9Z" transform="translate(-2.4 -12.9)"></path>
    <polygon points="67.2 8.1 43.1 92.5 48.9 94.2 73 9.8 67.2 8.1"></polygon>
  </g>
</svg>