<svg viewBox="0 0 123.3 102.3" xmlns="http://www.w3.org/2000/svg">
  <g>
    <rect fill="#fff" x="15.7" y="34.8" width="44.7" height="30.58" rx="1.7" ry="1.7"></rect>
    <path fill="#fff" d="M124.8,76.4h-.1V74.9h.1a.6.6,0,0,0,.6-.5.6.6,0,0,0-.6-.6h-.2c0-.5,0-1,0-1.5h.2a.6.6,0,0,0,.6-.5.6.6,0,0,0-.6-.6h-.2V69.6h.3a.6.6,0,0,0,.6-.6.6.6,0,0,0-.6-.5h-.3V66.9h0a1.2,1.2,0,0,0,1.1-1.3,1.2,1.2,0,0,0-1.3-1.1h-.1c-1.1-5.2-5.6-9.1-12.7-9.1H101.1c-2.7-4.6-4.1-7.6-5.2-8.2S90,45.3,82.7,45.3s-9.9.3-10.7.7-1.3.4-1.3,3.2V60.7h-1V46.6a1.3,1.3,0,0,0-1.3-1.3H65.4a1.3,1.3,0,0,0-1.3,1.3V79.4H3.2a.8.8,0,0,0-.8.8v3.8a.8.8,0,0,0,.8.8h2a.3.3,0,0,1,.3.3v.5a1,1,0,0,0,1,1H14a1,1,0,0,0,1-1v-.5a.3.3,0,0,1,.3-.3h7.3a12.8,12.8,0,0,1,8.6-3.1,12.8,12.8,0,0,1,8.6,3.1h2.8a.3.3,0,0,1,.3.3v.5a1,1,0,0,0,1,1h3.9l.5-.5a.3.3,0,0,1,.4,0l.5.5h4.3l.2-.2a.3.3,0,0,1,.4,0l.2.2h4.3l.5-.5a.3.3,0,0,1,.4,0l.5.5h3.2a1,1,0,0,0,1-1v-.5a.3.3,0,0,1,.3-.3H88.5a3.8,3.8,0,0,0-.6,1.7c0,2.5,1.8,2.9,4.5,2.6h0c.1-.2,4.9-8.4,12.6-8.3s11.6,5.8,12.6,7.7c0,.1,0,.2,0,.3h0c3.2.4,5.3.1,5.3-2.6a5.1,5.1,0,0,0-1.3-2.6h0c2.8-.6,3.2-3,3.1-6.2h0a.6.6,0,0,0,.6-.4A.6.6,0,0,0,124.8,76.4ZM96.9,55.6l-10.8.5h0c-3.6-.1-4.1.4-4.1-.6s-.2-3.7-.2-4.7.1-1.8,1.2-1.8,7.4-.2,8.6-.1a2.9,2.9,0,0,1,2.8,2l2.3,4.8Z" transform="translate(-2.4 -12.9)"></path>
    <path fill="#fff" d="M105.1,92.5c-1.8,0-3.2,1.1-3.2,2.5s1.5,2.5,3.2,2.5,3.2-1.1,3.2-2.5S106.9,92.5,105.1,92.5Zm0,4.2a1.4,1.4,0,1,1,1.7-1.3A1.5,1.5,0,0,1,105.1,96.7Z" transform="translate(-2.4 -12.9)"></path>
    <path fill="#fff" d="M108.9,84.5v-.7a1.1,1.1,0,0,0-1.1-1.1h-5.5a1.1,1.1,0,0,0-1.1,1.1v.6c-5.3,1.2-9.1,5-9.1,9.5a8.3,8.3,0,0,0,2.1,5.4h0a.6.6,0,0,0,0,.8l2,2a.6.6,0,0,0,.8,0l.2-.3a16,16,0,0,0,15.6,0l.2.3a.6.6,0,0,0,.8,0l2-2a.6.6,0,0,0,0-.8h0a8.3,8.3,0,0,0,2.1-5.4C118,89.5,114.2,85.7,108.9,84.5Zm-5.3.2h3.2a.6.6,0,0,1,.6.6l-.5,2.9a.6.6,0,0,1-.6.6h-2a.6.6,0,0,1-.6-.6l-.7-2.9A.6.6,0,0,1,103.6,84.6ZM97.9,99.8l-.8,1.2a.3.3,0,0,1-.4,0l-1.1-1.1a.3.3,0,0,1,0-.4l1.3-.8a.3.3,0,0,1,.4,0l.7.7H98v.4Zm7.2,1c-3.7,0-6.7-2.3-6.7-5.2s3-5.2,6.7-5.2,6.7,2.3,6.7,5.2S108.9,100.8,105.1,100.8Zm9.7-1-1.1,1.1a.3.3,0,0,1-.4,0l-.8-1.2h-.1v-.4l.7-.7a.3.3,0,0,1,.4,0l1.3.8A.3.3,0,0,1,114.8,99.9Z" transform="translate(-2.4 -12.9)"></path>
    <path fill="#fff" d="M31.7,92.3c-1.8,0-3.2,1.1-3.2,2.5s1.5,2.5,3.2,2.5,3.2-1.1,3.2-2.5S33.5,92.3,31.7,92.3Zm0,4.3a1.4,1.4,0,1,1,0-2.7,1.4,1.4,0,1,1,0,2.7Z" transform="translate(-2.4 -12.9)"></path>
    <path fill="#fff" d="M35.4,84.2v-.7a1.1,1.1,0,0,0-1.1-1.1H28.9a1.1,1.1,0,0,0-1.1,1.1v.7c-5.3,1.2-9.1,5.1-9.1,9.6A8.5,8.5,0,0,0,21,99.3h0a.6.6,0,0,0,0,.8l2,2a.5.5,0,0,0,.8,0l.2-.3a15.8,15.8,0,0,0,15.6,0l.2.3a.5.5,0,0,0,.8,0l2-2a.6.6,0,0,0,0-.8h0a8.5,8.5,0,0,0,2.1-5.5C44.6,89.3,40.7,85.5,35.4,84.2Zm-5.3.2h3.2a.6.6,0,0,1,.6.6l-.5,2.9a.6.6,0,0,1-.6.6h-2a.6.6,0,0,1-.6-.6L29.5,85A.6.6,0,0,1,30.1,84.4ZM24.5,99.8l-.8,1.2a.3.3,0,0,1-.4,0L22,99.8a.3.3,0,0,1,0-.5l1.3-.8a.3.3,0,0,1,.4,0l.7.7h.1v.4Zm7.2,1c-3.7,0-6.7-2.4-6.7-5.3s3-5.3,6.7-5.3,6.7,2.4,6.7,5.3S35.4,100.8,31.7,100.8Zm9.7-1L40.2,101a.3.3,0,0,1-.4,0l-.8-1.2h-.1v-.4l.7-.7a.3.3,0,0,1,.4,0l1.3.8A.3.3,0,0,1,41.4,99.8Z" transform="translate(-2.4 -12.9)"></path>
    <rect fill="#fff" x="76.8" y="26.2" width="13" height="13.01" rx="1.7" ry="1.7" transform="translate(-1.1 55.6) rotate(-45)"></rect>
  </g>
</svg>