<svg viewBox="0 0 123.3 102.3" xmlns="http://www.w3.org/2000/svg">
  <g>
    <rect x="44" y="39.4" width="40" height="40.02" rx="5.9" ry="5.9" transform="translate(-25.6 49.8) rotate(-45)"></rect>
    <path d="M24.4,58.5A39.6,39.6,0,0,0,93.3,86h0l-5.4-4.6h0A32.4,32.4,0,1,1,62.5,27h0V19.8h0A39.6,39.6,0,0,0,24.4,58.5Z" transform="translate(-2.4 -12.9)"></path>
    <path d="M96.4,59.4A32.3,32.3,0,0,1,89.8,79l5.4,4.6A39.6,39.6,0,0,0,65.5,19.8V27A32.4,32.4,0,0,1,96.4,59.4Z" transform="translate(-2.4 -12.9)"></path>
    <path d="M64.8,13.2A46.2,46.2,0,0,0,26.3,86.1h0V80.4h0a43.5,43.5,0,0,1-4.2-31.7,42.4,42.4,0,0,1,32-31.4,43.2,43.2,0,0,1,47.6,63.1h0v5.7h0A46.2,46.2,0,0,0,64.8,13.2Z" transform="translate(-2.4 -12.9)"></path>
    <path d="M64,102.5A43.1,43.1,0,0,1,30.1,86.1a.4.4,0,0,0-.8.3v3.4a.4.4,0,0,0,.1.3,46.2,46.2,0,0,0,24.4,14.4l.3.2h.1l8.8,9.7a1.3,1.3,0,0,0,1.9,0l8.8-9.8h.2A46.2,46.2,0,0,0,98.5,90.1a.4.4,0,0,0,.1-.3V86.4a.4.4,0,0,0-.8-.3A43.1,43.1,0,0,1,64,102.5Z" transform="translate(-2.4 -12.9)"></path>
  </g>
</svg>